HIERARCHY
ROOT Hips
{
	OFFSET 0.00000 0.00000 0.00000
	CHANNELS 6 Xposition Yposition Zposition Zrotation Yrotation Xrotation 
	JOINT LHipJoint
	{
		OFFSET 0 0 0
		CHANNELS 3 Zrotation Yrotation Xrotation
		JOINT LeftUpLeg
		{
			OFFSET 1.58895 -1.83665 0.71753
			CHANNELS 3 Zrotation Yrotation Xrotation
			JOINT LeftLeg
			{
				OFFSET 2.50528 -6.88321 0.00000
				CHANNELS 3 Zrotation Yrotation Xrotation
				JOINT LeftFoot
				{
					OFFSET 2.63244 -7.23257 0.00000
					CHANNELS 3 Zrotation Yrotation Xrotation
					JOINT LeftToeBase
					{
						OFFSET 0.23691 -0.65090 1.72750
						CHANNELS 3 Zrotation Yrotation Xrotation
						End Site
						{
							OFFSET 0.00000 -0.00000 0.92561
						}
					}
				}
			}
		}
	}
	JOINT RHipJoint
	{
		OFFSET 0 0 0
		CHANNELS 3 Zrotation Yrotation Xrotation
		JOINT RightUpLeg
		{
			OFFSET -1.51435 -1.83665 0.71753
			CHANNELS 3 Zrotation Yrotation Xrotation
			JOINT RightLeg
			{
				OFFSET -2.54551 -6.99375 0.00000
				CHANNELS 3 Zrotation Yrotation Xrotation
				JOINT RightFoot
				{
					OFFSET -2.66027 -7.30903 0.00000
					CHANNELS 3 Zrotation Yrotation Xrotation
					JOINT RightToeBase
					{
						OFFSET -0.22981 -0.63138 2.03959
						CHANNELS 3 Zrotation Yrotation Xrotation
						End Site
						{
							OFFSET -0.00000 -0.00000 1.07060
						}
					}
				}
			}
		}
	}
	JOINT LowerBack
	{
		OFFSET 0 0 0
		CHANNELS 3 Zrotation Yrotation Xrotation
		JOINT Spine
		{
			OFFSET -0.02651 1.86275 -0.11152
			CHANNELS 3 Zrotation Yrotation Xrotation
			JOINT Spine1
			{
				OFFSET 0.01019 1.86224 0.04087
				CHANNELS 3 Zrotation Yrotation Xrotation
				JOINT Neck
				{
					OFFSET 0 0 0
					CHANNELS 3 Zrotation Yrotation Xrotation
					JOINT Neck1
					{
						OFFSET -0.01926 1.80512 0.08867
						CHANNELS 3 Zrotation Yrotation Xrotation
						JOINT Head
						{
							OFFSET 0.05516 1.76451 -0.38475
							CHANNELS 3 Zrotation Yrotation Xrotation
							End Site
							{
								OFFSET 0.01592 1.82587 -0.14001
							}
						}
					}
				}
				JOINT LeftShoulder
				{
					OFFSET 0 0 0
					CHANNELS 3 Zrotation Yrotation Xrotation
					JOINT LeftArm
					{
						OFFSET 3.47116 1.51376 0.14491
						CHANNELS 3 Zrotation Yrotation Xrotation
						JOINT LeftForeArm
						{
							OFFSET 4.78095 -0.00000 0.00000
							CHANNELS 3 Zrotation Yrotation Xrotation
							JOINT LeftHand
							{
								OFFSET 3.58615 -0.00000 -0.00000
								CHANNELS 3 Zrotation Yrotation Xrotation
								JOINT LeftFingerBase
								{
									OFFSET 0 0 0
									CHANNELS 3 Zrotation Yrotation Xrotation
									JOINT LeftHandIndex1
									{
										OFFSET 0.65981 -0.00000 0.00000
										CHANNELS 3 Zrotation Yrotation Xrotation
										End Site
										{
											OFFSET 0.53196 -0.00000 0.00000
										}
									}
								}
								JOINT LThumb
								{
									OFFSET 0 0 0
									CHANNELS 3 Zrotation Yrotation Xrotation
									End Site
									{
										OFFSET 0.54008 -0.00000 0.54008
									}
								}
							}
						}
					}
				}
				JOINT RightShoulder
				{
					OFFSET 0 0 0
					CHANNELS 3 Zrotation Yrotation Xrotation
					JOINT RightArm
					{
						OFFSET -3.31725 1.61216 0.35156
						CHANNELS 3 Zrotation Yrotation Xrotation
						JOINT RightForeArm
						{
							OFFSET -4.48913 -0.00000 0.00000
							CHANNELS 3 Zrotation Yrotation Xrotation
							JOINT RightHand
							{
								OFFSET -3.70510 -0.00000 0.00000
								CHANNELS 3 Zrotation Yrotation Xrotation
								JOINT RightFingerBase
								{
									OFFSET 0 0 0
									CHANNELS 3 Zrotation Yrotation Xrotation
									JOINT RightHandIndex1
									{
										OFFSET -0.44914 -0.00000 0.00000
										CHANNELS 3 Zrotation Yrotation Xrotation
										End Site
										{
											OFFSET -0.36211 -0.00000 0.00000
										}
									}
								}
								JOINT RThumb
								{
									OFFSET 0 0 0
									CHANNELS 3 Zrotation Yrotation Xrotation
									End Site
									{
										OFFSET -0.36763 -0.00000 0.36763
									}
								}
							}
						}
					}
				}
			}
		}
	}
}
MOTION
Frames: 14
Frame Time: .0083333
-0.1999 18.7272 4.7522 -2.4495 -25.8937 11.3214 0.0000 0.0000 0.0000 -14.4075 11.0581 -22.6373 2.3522 9.5641 27.5763 1.4487 5.2158 -25.1432 8.1434 -16.2237 -53.0775 0.0000 0.0000 0.0000 0.0000 0.0000 0.0000 0.0000 0.0000 0.0000 -0.0000 -0.0000 0.0000 -0.0000 -0.0000 0.0000 -13.1749 -7.2944 29.0905 -5.6346 -14.2361 3.6556 5.8814 -6.2154 -10.0171 -0.2597 3.8585 -20.4445 -18.7575 8.1955 11.4741 -5.1963 2.0192 7.8711 0.0000 0.0000 0.0000 -27.8406 -26.5739 -12.9173 13.0413 -21.3477 -2.4683 -0.0000 -0.0000 45.1653 21.7679 -13.6235 -5.3732 -7.1250 0.0000 -0.0000 -3.8499 15.3761 2.6974 0.0000 0.0000 0.0000 98.9418 -29.0156 -27.4430 -74.3041 59.0483 -46.4504 0.0000 -0.0000 -56.0363 -10.0362 -39.7465 6.4560 7.1250 -0.0000 -0.0000 34.5716 -67.0981 -19.3216
-0.2161 18.7273 4.7550 -2.4363 -26.1625 11.2811 0.0000 0.0000 0.0000 -14.3959 11.1224 -22.4585 2.3359 9.5333 27.4783 1.4592 5.3666 -25.3084 8.1330 -16.2162 -53.0402 0.0000 0.0000 0.0000 0.0000 0.0000 0.0000 0.0000 0.0000 0.0000 -0.0000 -0.0000 0.0000 -0.0000 -0.0000 0.0000 -13.6584 -7.3159 29.1017 -5.8496 -14.4661 3.5159 5.9671 -6.2909 -10.0977 -0.0850 4.1820 -21.3389 -19.1474 8.7209 11.5469 -5.2910 2.1781 8.1435 -0.0000 0.0000 0.0000 -29.0679 -23.8960 -13.1305 13.2598 -21.6667 -2.5484 -0.0000 -0.0000 44.6960 24.1323 -16.1037 -7.0835 -7.1250 0.0000 -0.0000 -2.4023 12.4366 1.8302 -0.0000 0.0000 0.0000 98.1584 -28.8563 -29.0800 -79.2627 59.5599 -50.7150 0.0000 -0.0000 -58.0840 -10.6436 -39.6042 6.8317 7.1250 -0.0000 -0.0000 33.7155 -67.1674 -18.8500
-0.2309 18.7281 4.7593 -2.4257 -26.3741 11.2935 0.0000 0.0000 0.0000 -14.3843 11.0639 -22.2915 2.3163 9.4960 27.3596 1.4646 5.5908 -25.4781 8.1477 -16.2268 -53.0930 0.0000 0.0000 0.0000 0.0000 0.0000 0.0000 0.0000 0.0000 0.0000 -0.0000 -0.0000 0.0000 -0.0000 -0.0000 0.0000 -14.1134 -7.3805 29.1171 -5.9989 -14.7236 3.4357 6.1094 -6.3896 -10.0912 -0.3279 4.4232 -22.8294 -19.0644 9.2560 11.8552 -5.1524 2.3143 8.5531 -0.0000 -0.0000 0.0000 -30.3786 -21.0597 -13.0675 13.6491 -22.2309 -2.6939 -0.0000 -0.0000 43.8075 25.9997 -17.8587 -8.5068 -7.1250 0.0000 -0.0000 -1.3216 10.2624 1.0653 -0.0000 -0.0000 0.0000 97.0243 -28.5195 -30.3455 -84.6103 59.8900 -55.3341 0.0000 -0.0000 -59.9637 -10.8485 -39.2005 6.9061 7.1250 -0.0000 -0.0000 32.8984 -66.9040 -18.1587
-0.2463 18.7290 4.7638 -2.4350 -26.5477 11.3705 0.0000 0.0000 0.0000 -14.3472 10.8978 -22.1504 2.2958 9.4568 27.2349 1.4680 5.8500 -25.6557 8.1545 -16.2317 -53.1172 0.0000 0.0000 0.0000 0.0000 0.0000 0.0000 0.0000 0.0000 0.0000 -0.0000 -0.0000 0.0000 -0.0000 -0.0000 0.0000 -14.4010 -7.4416 28.9202 -6.2292 -14.8956 3.3854 6.0193 -6.4686 -10.0201 -0.5178 4.5095 -23.8208 -19.0400 9.4743 11.7879 -5.0790 2.3558 8.7186 0.0000 0.0000 0.0000 -31.5550 -18.1772 -12.0441 14.0868 -22.8586 -2.8617 -0.0000 -0.0000 42.3939 27.3623 -18.7637 -9.4512 -7.1250 0.0000 -0.0000 -0.5309 9.0478 0.4408 0.0000 0.0000 0.0000 95.8659 -28.2876 -31.6515 -89.9124 60.0000 -59.9241 0.0000 -0.0000 -62.2042 -10.6057 -38.2470 6.6120 7.1250 -0.0000 -0.0000 31.8092 -66.0554 -16.8978
-0.2624 18.7299 4.7680 -2.4399 -26.6944 11.4894 0.0000 0.0000 0.0000 -14.3275 10.8586 -22.1247 2.2755 9.4178 27.1112 1.4679 5.9720 -25.7281 8.1490 -16.2277 -53.0975 0.0000 0.0000 0.0000 0.0000 0.0000 0.0000 0.0000 0.0000 0.0000 -0.0000 -0.0000 0.0000 -0.0000 -0.0000 0.0000 -14.7777 -7.3841 29.0950 -6.2945 -15.0475 3.0034 6.2433 -6.4555 -10.4659 -0.5495 4.5575 -24.2251 -19.4119 9.5824 11.5100 -5.1833 2.3599 8.7357 0.0000 0.0000 0.0000 -33.1312 -14.9965 -10.0038 14.5684 -23.5415 -3.0515 -0.0000 -0.0000 40.1037 28.0697 -19.8280 -10.2530 -7.1250 0.0000 -0.0000 -0.2013 7.7530 0.1723 0.0000 0.0000 0.0000 94.1357 -28.5205 -33.0360 -94.5729 59.9208 -63.9592 0.0000 -0.0000 -65.5438 -9.6350 -36.5779 5.7767 7.1250 -0.0000 -0.0000 30.6887 -64.3968 -15.0877
-0.2780 18.7301 4.7731 -2.3727 -26.8206 11.6175 0.0000 0.0000 0.0000 -14.4260 11.0922 -22.2746 2.2543 9.3769 26.9816 1.4552 5.9052 -25.5934 8.1608 -16.2362 -53.1397 0.0000 0.0000 0.0000 0.0000 0.0000 0.0000 0.0000 0.0000 0.0000 -0.0000 -0.0000 0.0000 -0.0000 -0.0000 0.0000 -15.0634 -7.3621 28.7244 -6.5817 -15.0873 2.9629 6.0221 -6.4846 -10.3344 -0.3137 4.5749 -24.7446 -19.5703 9.5258 11.1754 -5.2809 2.3260 8.7286 0.0000 -0.0000 0.0000 -34.2439 -11.9856 -7.5833 15.3552 -24.6386 -3.3726 -0.0000 -0.0000 35.1229 25.8433 -21.6219 -10.1193 -7.1250 0.0000 -0.0000 -1.8263 6.2205 1.6185 0.0000 -0.0000 0.0000 92.5028 -28.2948 -34.1707 -99.8115 59.6331 -68.4866 0.0000 -0.0000 -67.2742 -9.8863 -35.7914 5.8198 7.1250 -0.0000 -0.0000 29.4963 -63.8010 -14.0434
-0.2927 18.7304 4.7785 -2.2612 -26.9418 11.7402 0.0000 0.0000 0.0000 -14.5661 11.1784 -22.3752 2.2318 9.3330 26.8426 1.4508 5.8916 -25.5526 8.1366 -16.2188 -53.0533 0.0000 0.0000 0.0000 0.0000 0.0000 0.0000 0.0000 0.0000 0.0000 -0.0000 -0.0000 0.0000 -0.0000 -0.0000 0.0000 -15.4113 -7.2888 28.6800 -6.7873 -15.1708 2.7081 6.0090 -6.4734 -10.5798 -0.1815 4.6098 -25.4740 -19.6639 9.6072 11.2490 -5.3290 2.3130 8.9027 -0.0000 0.0000 0.0000 -35.6737 -8.3945 -4.8784 16.1311 -25.6981 -3.7026 -0.0000 -0.0000 31.6315 31.4116 -22.5091 -13.1587 -7.1250 0.0000 -0.0000 1.5177 4.0881 -1.4062 -0.0000 0.0000 0.0000 90.2945 -28.2652 -35.2154 -104.5919 59.1800 -72.6022 0.0000 -0.0000 -68.8251 -9.5066 -35.3751 5.5374 7.1250 -0.0000 -0.0000 29.4235 -63.3462 -13.6938
-0.3077 18.7315 4.7833 -2.1848 -27.0614 11.8389 0.0000 0.0000 0.0000 -14.6285 11.0046 -22.3128 2.2091 9.2887 26.7027 1.4569 6.0700 -25.7045 8.1121 -16.2011 -52.9653 0.0000 0.0000 0.0000 0.0000 0.0000 0.0000 0.0000 0.0000 0.0000 -0.0000 -0.0000 0.0000 -0.0000 -0.0000 0.0000 -15.9407 -7.0856 29.3112 -6.6280 -15.3356 1.7017 6.3018 -6.4045 -11.0831 -0.1137 4.6812 -26.1785 -19.8480 9.8102 11.5046 -5.3849 2.3282 9.1548 -0.0000 0.0000 0.0000 -37.4210 -4.2990 -1.2436 17.7858 -27.8820 -4.4486 -0.0000 -0.0000 24.5820 30.6978 -23.7831 -13.4647 -7.1250 0.0000 -0.0000 0.8785 2.8465 -0.8339 -0.0000 0.0000 0.0000 87.3185 -28.3254 -36.1842 -108.8692 58.6110 -76.2650 0.0000 -0.0000 -70.1557 -9.6805 -36.7518 5.8279 7.1250 -0.0000 -0.0000 30.8531 -64.5548 -15.2884
-0.3223 18.7318 4.7881 -2.1435 -27.1501 11.9271 0.0000 0.0000 0.0000 -14.6489 10.8599 -22.2390 2.1873 9.2458 26.5673 1.4606 6.2566 -25.8458 8.1279 -16.2125 -53.0220 0.0000 0.0000 0.0000 0.0000 0.0000 0.0000 0.0000 0.0000 0.0000 -0.0000 -0.0000 0.0000 -0.0000 -0.0000 0.0000 -16.2007 -7.0022 29.3812 -6.8727 -15.4151 1.4595 6.2301 -6.3831 -11.3869 0.2937 4.7802 -26.7055 -19.9230 9.8365 11.4157 -5.4761 2.3319 9.2416 -0.0000 -0.0000 0.0000 -38.5370 -0.2539 2.4442 19.5246 -30.0653 -5.2911 -0.0000 -0.0000 18.4293 30.9416 -24.1525 -13.7817 -7.1250 0.0000 -0.0000 0.9667 2.3816 -0.9258 -0.0000 -0.0000 0.0000 84.4364 -27.5344 -37.2213 -112.8928 57.9241 -79.6876 0.0000 -0.0000 -71.7435 -8.9408 -33.6085 4.9769 7.1250 -0.0000 -0.0000 28.1504 -61.6833 -11.9486
-0.3336 18.7315 4.7930 -2.1015 -27.1738 12.0609 0.0000 0.0000 0.0000 -14.6760 10.6761 -22.2237 2.1648 9.2012 26.4266 1.4630 6.4072 -25.9551 8.1307 -16.2146 -53.0323 0.0000 0.0000 0.0000 0.0000 0.0000 0.0000 0.0000 0.0000 0.0000 -0.0000 -0.0000 0.0000 -0.0000 -0.0000 0.0000 -16.3890 -6.9830 29.0344 -7.2036 -15.4258 1.4913 5.9248 -6.4079 -11.2433 0.8313 4.8845 -27.0304 -20.0605 9.7591 11.0243 -5.6192 2.3226 9.1871 0.0000 -0.0000 0.0000 -39.3045 3.5316 6.0345 21.1984 -32.0592 -6.1549 -0.0000 -0.0000 13.1601 32.8623 -24.0898 -14.7712 -7.1250 0.0000 -0.0000 2.1374 1.9711 -2.0641 0.0000 -0.0000 0.0000 81.4426 -26.0521 -38.2837 -116.4643 57.1808 -82.7018 0.0000 -0.0000 -73.0775 -9.1863 -33.3225 5.0769 7.1250 -0.0000 -0.0000 27.6148 -61.4953 -11.5780
-0.3435 18.7311 4.7982 -2.0476 -27.1871 12.2258 0.0000 0.0000 0.0000 -14.7251 10.5290 -22.2667 2.1410 9.1537 26.2774 1.4563 6.5117 -25.9701 8.1298 -16.2139 -53.0287 0.0000 0.0000 0.0000 0.0000 0.0000 0.0000 0.0000 0.0000 0.0000 -0.0000 -0.0000 0.0000 -0.0000 -0.0000 0.0000 -16.5152 -6.9738 28.9908 -7.5068 -15.5434 1.2664 5.7285 -6.4177 -11.5241 1.3473 5.0562 -27.3728 -20.2411 9.8436 10.9108 -5.7558 2.3585 9.2544 -0.0000 0.0000 0.0000 -40.0754 7.5722 9.6488 22.9038 -33.9834 -7.0844 -0.0000 -0.0000 8.3680 34.9238 -24.2152 -15.9811 -7.1250 0.0000 -0.0000 3.3513 1.2774 -3.2814 -0.0000 0.0000 0.0000 77.9244 -24.8608 -39.0145 -119.3141 56.4900 -85.0876 0.0000 -0.0000 -73.6383 -10.2782 -35.6064 6.0268 7.1250 -0.0000 -0.0000 28.8723 -63.7479 -13.6854
-0.3557 18.7314 4.8079 -1.9739 -27.2638 12.2987 0.0000 0.0000 0.0000 -14.7962 10.5231 -22.2234 2.1154 9.1024 26.1161 1.4564 6.5343 -25.9856 8.1203 -16.2071 -52.9950 0.0000 0.0000 0.0000 0.0000 0.0000 0.0000 0.0000 0.0000 0.0000 -0.0000 -0.0000 0.0000 -0.0000 -0.0000 0.0000 -16.7839 -6.8349 29.3717 -7.7009 -15.6691 0.8073 5.7967 -6.3552 -12.2023 1.8042 5.2221 -27.8579 -20.3290 10.0013 11.1618 -5.8491 2.4005 9.4719 -0.0000 0.0000 0.0000 -40.9621 11.8104 13.1444 24.7698 -35.9678 -8.1543 -0.0000 -0.0000 3.5102 37.0538 -25.0993 -17.7589 -7.1250 0.0000 -0.0000 4.4377 -0.3500 -4.4781 -0.0000 0.0000 0.0000 73.7251 -23.9872 -39.4501 -121.1219 56.0035 -86.5907 0.0000 -0.0000 -73.5452 -6.5561 -33.4873 3.6284 7.1250 -0.0000 -0.0000 30.4690 -60.9954 -12.5332
-0.3672 18.7335 4.8216 -1.9053 -27.4396 12.3448 0.0000 0.0000 0.0000 -14.8853 10.4919 -22.0828 2.0837 9.0383 25.9152 1.4644 6.6653 -26.1261 8.1061 -16.1967 -52.9439 0.0000 0.0000 0.0000 0.0000 0.0000 0.0000 0.0000 0.0000 0.0000 -0.0000 -0.0000 0.0000 -0.0000 -0.0000 0.0000 -16.9930 -6.6538 29.1437 -8.0889 -15.5454 0.7198 5.4374 -6.2877 -12.2883 2.3228 5.2189 -27.9755 -20.2359 9.7876 11.0861 -5.9384 2.3436 9.4518 -0.0000 -0.0000 0.0000 -41.6455 15.6825 16.1844 26.5576 -37.7540 -9.2270 -0.0000 0.0000 -0.2244 39.6707 -26.1650 -20.0879 -7.1250 0.0000 -0.0000 5.7253 -2.4250 -5.9919 -0.0000 -0.0000 0.0000 69.5613 -22.6317 -40.3577 -123.3260 55.3565 -88.4112 0.0000 -0.0000 -75.2278 -5.5465 -33.4719 3.0657 7.1250 -0.0000 -0.0000 31.4710 -60.7390 -12.7996
-0.3786 18.7368 4.8348 -1.8401 -27.5704 12.4325 0.0000 0.0000 0.0000 -14.9695 10.3670 -21.9433 2.0453 8.9598 25.6695 1.4656 6.8613 -26.2578 8.0831 -16.1801 -52.8616 0.0000 0.0000 0.0000 0.0000 0.0000 0.0000 0.0000 0.0000 0.0000 -0.0000 -0.0000 0.0000 -0.0000 -0.0000 0.0000 -17.1941 -6.4384 29.4480 -8.3096 -15.5674 0.2030 5.4146 -6.1711 -13.0515 2.5589 5.2472 -28.0297 -20.1700 9.7845 11.3261 -5.9628 2.3451 9.5484 -0.0000 -0.0000 0.0000 -42.8342 19.9028 18.9554 27.9889 -39.1060 -10.1167 -0.0000 0.0000 -1.9901 41.6589 -26.4124 -21.5915 -7.1250 0.0000 -0.0000 6.8026 -3.4251 -7.2469 -0.0000 -0.0000 0.0000 64.5903 -21.5809 -40.7044 -125.1319 54.7797 -89.8918 0.0000 -0.0000 -75.7015 -4.8629 -33.1554 2.6640 7.1250 -0.0000 -0.0000 31.8408 -60.3104 -12.6399
